# xmcd
#
# Track frame offsets: 
#        150
#        25768
#        54513
#        81730
#        107153
#        133878
#        163200
#        190950
#        216740
#        237470
#
# Disc length: 3507 seconds
#
# Revision: 2
# Processed by: cddbd v1.5.2PL0 Copyright (c) Steve Scherf et al.
# Submitted via: ExactAudioCopy v1.0b3
#
DISCID=9d0db10a
DTITLE=Various Artist - Sai Gon Niem Nho Khong Ten
DYEAR=1990
DGENRE=
TTITLE0=Le Hang - Sai gon niem nho khong ten
TTITLE1=Ngoc Lan - Ai tro ve xu Viet
TTITLE2=Hang Nga - Nguoi di tan buon
TTITLE3=Nhu Mai - Khi xa Sai Gon
TTITLE4=Carol Kim - O ben nha
TTITLE5=Le Hang - Mot lan di
TTITLE6=Elvis Phuong - Sai Gon con day niem nho
TTITLE7=Carol Kim - Muoi nam yeu em
TTITLE8=Kieu Nga - Ban tinh ca cho anh
TTITLE9=Hang Nga - Xac em nay o phuong nao
EXTD=
EXTT0=
EXTT1=
EXTT2=
EXTT3=
EXTT4=
EXTT5=
EXTT6=
EXTT7=
EXTT8=
EXTT9=
PLAYORDER=
